<svg width="64" height="64" viewBox="0 0 64 64" fill="none" xmlns="http://www.w3.org/2000/svg">
<g clip-path="url(#clip0_1_2)">
<path d="M35 64H29V55.9961C29.9434 55.9992 30.9418 56 32 56C33.0582 56 34.0566 55.9992 35 55.9961V64ZM14.0049 35C14.0158 38.1834 14.0592 40.5061 14.2402 42.373C14.4649 44.6893 14.8548 45.6641 15.2266 46.2559C15.866 47.2735 16.7265 48.134 17.7441 48.7734C18.3359 49.1452 19.3108 49.5351 21.627 49.7598C23.4939 49.9408 25.8166 49.9842 29 49.9951V55.9961C21.8633 55.9725 17.8684 55.7718 14.876 54.0488L14.5518 53.8545C12.7709 52.7355 11.2645 51.2291 10.1455 49.4482C8.24254 46.4194 8.02823 42.3974 8.00391 35H14.0049ZM55.9961 35C55.9718 42.3974 55.7575 46.4194 53.8545 49.4482L53.6396 49.7793C52.5457 51.4161 51.1177 52.8055 49.4482 53.8545L49.124 54.0488C46.1316 55.7718 42.1367 55.9725 35 55.9961V49.9951C38.1834 49.9842 40.5061 49.9408 42.373 49.7598C44.6892 49.5351 45.6641 49.1452 46.2559 48.7734C47.2735 48.134 48.134 47.2735 48.7734 46.2559C49.1452 45.6641 49.5351 44.6892 49.7598 42.373C49.9408 40.5061 49.9842 38.1834 49.9951 35H55.9961ZM35 14.0039V29H49.9951C49.9983 29.9242 50 30.9209 50 32C50 33.0791 49.9983 34.0758 49.9951 35H35V49.9951C34.0758 49.9983 33.0791 50 32 50C30.9209 50 29.9242 49.9983 29 49.9951V35H14.0049C14.0017 34.0758 14 33.0791 14 32C14 30.9209 14.0017 29.9242 14.0049 29H29V14.0039C29.9242 14.0007 30.9209 14 32 14C33.0791 14 34.0758 14.0007 35 14.0039ZM64 29V35H55.9961C55.9992 34.0565 56 33.0582 56 32C56 30.9418 55.9992 29.9435 55.9961 29H64ZM8 32C8 33.0582 8.0008 34.0565 8.00391 35H0V29H8.00391C8.00079 29.9434 8 30.9418 8 32ZM35 8.00293C42.3974 8.02725 46.4194 8.24254 49.4482 10.1455C51.2291 11.2645 52.7355 12.7709 53.8545 14.5518C55.7575 17.5806 55.9718 21.6026 55.9961 29H49.9951C49.9842 25.8166 49.9408 23.4939 49.7598 21.627C49.5351 19.3108 49.1452 18.3359 48.7734 17.7441C48.134 16.7265 47.2735 15.866 46.2559 15.2266C45.6641 14.8548 44.6893 14.4649 42.373 14.2402C40.5061 14.0592 38.1834 14.0149 35 14.0039V8.00293ZM29 14.0039C25.8166 14.0149 23.4939 14.0592 21.627 14.2402C19.3108 14.4649 18.3359 14.8548 17.7441 15.2266C16.7265 15.866 15.866 16.7265 15.2266 17.7441C14.8548 18.3359 14.4649 19.3108 14.2402 21.627C14.0592 23.4939 14.0158 25.8166 14.0049 29H8.00391C8.02747 21.8633 8.22817 17.8684 9.95117 14.876L10.1455 14.5518C11.1945 12.8823 12.5839 11.4543 14.2207 10.3604L14.5518 10.1455C17.5806 8.24254 21.6026 8.02725 29 8.00293V14.0039ZM35 8.00293C34.0566 7.99983 33.0582 8 32 8C30.9418 8 29.9434 7.99983 29 8.00293V0H35V8.00293Z" fill="white"/>
</g>
<defs>
<clipPath id="clip0_1_2">
<rect width="64" height="64" fill="white"/>
</clipPath>
</defs>
</svg>
