<svg width="64" height="64" viewBox="0 0 64 64" fill="none" xmlns="http://www.w3.org/2000/svg">
<g clip-path="url(#clip0_1_2)">
<path d="M33 64H31V49.998C31.3257 49.9982 31.659 50 32 50C32.341 50 32.6743 49.9982 33 49.998V64ZM16.002 33C16.0041 36.2735 16.0234 38.6659 16.2275 40.5498C16.4478 42.5831 16.8624 43.7856 17.5283 44.7021C18.0217 45.3812 18.6188 45.9783 19.2979 46.4717C20.2144 47.1376 21.4169 47.5522 23.4502 47.7725C25.3341 47.9766 27.7265 47.9959 31 47.998V49.998C24.1618 49.9943 20.6312 49.9128 18.1221 48.0898C17.3794 47.5502 16.7151 46.9113 16.1475 46.1914L15.9102 45.8779C14.0872 43.3688 14.0057 39.8382 14.002 33H16.002ZM49.998 33C49.9943 39.8382 49.9128 43.3688 48.0898 45.8779L47.8525 46.1914C47.2849 46.9113 46.6206 47.5502 45.8779 48.0898L45.6279 48.2637C43.1339 49.9184 39.6142 49.9944 33 49.998V47.998C36.2735 47.9959 38.6659 47.9766 40.5498 47.7725C42.5831 47.5522 43.7856 47.1376 44.7021 46.4717C45.3812 45.9783 45.9783 45.3812 46.4717 44.7021C47.1376 43.7856 47.5522 42.5831 47.7725 40.5498C47.9766 38.6659 47.9959 36.2735 47.998 33H49.998ZM33 16.001V31H47.998C47.9983 31.3246 48 31.6578 48 32C48 32.3422 47.9983 32.6754 47.998 33H33V47.998C32.6754 47.9983 32.3422 48 32 48C31.6578 48 31.3246 47.9983 31 47.998V33H16.002C16.0017 32.6754 16 32.3422 16 32C16 31.6578 16.0017 31.3246 16.002 31H31V16.001C31.3246 16.0008 31.6578 16 32 16C32.3422 16 32.6754 16.0008 33 16.001ZM64 31V33H49.998C49.9982 32.6743 50 32.341 50 32C50 31.659 49.9982 31.3257 49.998 31H64ZM14 32C14 32.341 14.0018 32.6743 14.002 33H0V31H14.001C14.0008 31.3257 14 31.659 14 32ZM33 14.001C39.8382 14.0048 43.3688 14.0872 45.8779 15.9102C46.7267 16.5269 47.4731 17.2733 48.0898 18.1221C49.9128 20.6312 49.9943 24.1618 49.998 31H47.998C47.9959 27.7265 47.9766 25.3341 47.7725 23.4502C47.5522 21.4169 47.1376 20.2144 46.4717 19.2979C45.9783 18.6188 45.3812 18.0217 44.7021 17.5283C43.7856 16.8624 42.5831 16.4478 40.5498 16.2275C38.6659 16.0234 36.2735 16.0031 33 16.001V14.001ZM31 16.001C27.7265 16.0031 25.3341 16.0234 23.4502 16.2275C21.4169 16.4478 20.2144 16.8624 19.2979 17.5283C18.6188 18.0217 18.0217 18.6188 17.5283 19.2979C16.8624 20.2144 16.4478 21.4169 16.2275 23.4502C16.0234 25.3341 16.0041 27.7265 16.002 31H14.001C14.0046 24.3858 14.0816 20.8661 15.7363 18.3721L15.9102 18.1221C16.4498 17.3794 17.0887 16.7151 17.8086 16.1475L18.1221 15.9102C20.6312 14.0872 24.1618 14.0048 31 14.001V16.001ZM33 14.001C32.6743 14.0008 32.341 14 32 14C31.659 14 31.3257 14.0008 31 14.001V0H33V14.001Z" fill="white"/>
</g>
<defs>
<clipPath id="clip0_1_2">
<rect width="64" height="64" fill="white"/>
</clipPath>
</defs>
</svg>
