# Blender 5.0.1
# www.blender.org
o Cube
v -0.980639 0.000000 0.980639
v -0.810946 0.189054 0.990000
v -0.990000 0.189054 0.810946
v -0.810946 1.810946 0.990000
v -0.980639 2.000000 0.980639
v -0.990000 1.810946 0.810946
v -0.980639 0.000000 -0.980639
v -0.990000 0.189054 -0.810946
v -0.810946 0.189054 -0.990000
v -0.980639 2.000000 -0.980639
v -0.810946 1.810946 -0.990000
v -0.990000 1.810946 -0.810946
v 0.980639 0.000000 0.980639
v 0.990000 0.189054 0.810946
v 0.810946 0.189054 0.990000
v 0.980639 2.000000 0.980639
v 0.810946 1.810946 0.990000
v 0.990000 1.810946 0.810946
v 0.980639 0.000000 -0.980639
v 0.810946 0.189054 -0.990000
v 0.990000 0.189054 -0.810946
v 0.980639 2.000000 -0.980639
v 0.990000 1.810946 -0.810946
v 0.810946 1.810946 -0.990000
v -1.000000 0.019361 0.980639
v -1.000000 0.019361 -0.980639
v -0.980639 0.019361 1.000000
v -0.980639 1.980639 1.000000
v -1.000000 1.980639 0.980639
v -1.000000 1.980639 -0.980639
v -0.980639 1.980639 -1.000000
v -0.980639 0.019361 -1.000000
v 0.980639 0.019361 -1.000000
v 0.980639 1.980639 -1.000000
v 1.000000 1.980639 -0.980639
v 1.000000 0.019361 -0.980639
v 1.000000 0.019361 0.980639
v 1.000000 1.980639 0.980639
v 0.980639 1.980639 1.000000
v 0.980639 0.019361 1.000000
v -1.000000 0.097525 0.902475
v -1.000000 0.097525 -0.902475
v -0.902475 0.097525 1.000000
v -0.902475 1.902475 1.000000
v -1.000000 1.902475 0.902475
v -1.000000 1.902475 -0.902475
v -0.902475 1.902475 -1.000000
v -0.902475 0.097525 -1.000000
v 0.902475 0.097525 -1.000000
v 0.902475 1.902475 -1.000000
v 1.000000 1.902475 -0.902475
v 1.000000 0.097525 -0.902475
v 1.000000 0.097525 0.902475
v 1.000000 1.902475 0.902475
v 0.902475 1.902475 1.000000
v 0.902475 0.097525 1.000000
vn -0.5774 -0.5774 0.5774
vn -0.5774 0.5774 0.5774
vn -0.5774 -0.5774 -0.5774
vn -0.5774 0.5774 -0.5774
vn 0.5774 -0.5774 0.5774
vn 0.5774 0.5774 0.5774
vn 0.5774 -0.5774 -0.5774
vn 0.5774 0.5774 -0.5774
vn -0.7071 -0.7071 -0.0000
vn -0.7071 -0.0000 0.7071
vn -0.7071 0.7071 -0.0000
vn -0.7071 -0.0000 -0.7071
vn -0.0000 -0.7071 -0.7071
vn -0.0000 0.7071 -0.7071
vn 0.7071 -0.0000 -0.7071
vn 0.7071 -0.7071 -0.0000
vn 0.7071 0.7071 -0.0000
vn 0.7071 -0.0000 0.7071
vn -0.0000 -0.7071 0.7071
vn -0.0000 0.7071 0.7071
vn -0.0000 -1.0000 -0.0000
vn -1.0000 -0.0000 -0.0000
vn -0.0000 -0.0000 1.0000
vn -0.0000 1.0000 -0.0000
vn -0.0000 -0.0000 -1.0000
vn 1.0000 -0.0000 -0.0000
vn -0.9941 0.1086 -0.0000
vn 0.1086 -0.0000 0.9941
vn -0.9941 -0.0000 -0.1086
vn -0.9941 -0.1086 -0.0000
vn 0.1086 -0.0000 -0.9941
vn -0.9941 -0.0000 0.1086
vn -0.0000 0.1086 -0.9941
vn -0.0000 -0.1086 -0.9941
vn 0.9941 -0.0000 0.1086
vn -0.1086 -0.0000 -0.9941
vn 0.9941 0.1086 -0.0000
vn 0.9941 -0.1086 -0.0000
vn -0.1086 -0.0000 0.9941
vn 0.9941 -0.0000 -0.1086
vn -0.0000 0.1086 0.9941
vn -0.0000 -0.1086 0.9941
vt 0.127420 0.747580
vt 0.127420 0.750000
vt 0.125000 0.747580
vt 0.622580 0.000000
vt 0.625000 0.002420
vt 0.622580 0.002420
vt 0.127420 0.502420
vt 0.125000 0.502420
vt 0.127420 0.500000
vt 0.625000 0.249193
vt 0.622580 0.251815
vt 0.622580 0.247580
vt 0.372580 0.747580
vt 0.376815 0.747580
vt 0.375000 0.751210
vt 0.626210 0.750000
vt 0.622580 0.752420
vt 0.622580 0.748185
vt 0.372580 0.502420
vt 0.375000 0.498790
vt 0.376815 0.502420
vt 0.626210 0.500000
vt 0.622580 0.501815
vt 0.622580 0.497580
vt 0.377420 0.000000
vt 0.377420 0.002420
vt 0.377420 0.252420
vt 0.377420 0.247580
vt 0.625000 0.997580
vt 0.622580 0.997580
vt 0.398632 0.023632
vt 0.601368 0.023632
vt 0.601368 0.226368
vt 0.398632 0.226368
vt 0.396586 0.772609
vt 0.601203 0.773549
vt 0.601324 0.976346
vt 0.398467 0.976286
vt 0.872580 0.502420
vt 0.872580 0.747580
vt 0.398467 0.273673
vt 0.601324 0.273143
vt 0.601203 0.476409
vt 0.396586 0.477380
vt 0.398079 0.523602
vt 0.601316 0.523162
vt 0.601316 0.726839
vt 0.398079 0.726398
vt 0.387191 0.012191
vt 0.387191 0.237809
vt 0.387112 0.987770
vt 0.612791 0.987800
vt 0.377420 0.997580
vt 0.612809 0.012191
vt 0.612809 0.237809
vt 0.612791 0.261638
vt 0.387112 0.262210
vt 0.384945 0.488927
vt 0.612731 0.487829
vt 0.612785 0.511649
vt 0.386610 0.512176
vt 0.386610 0.737824
vt 0.612785 0.738351
vt 0.612731 0.762151
vt 0.384945 0.761068
s 0
f 1/1/1 27/2/1 25/3/1
f 28/4/2 5/5/2 29/6/2
f 7/7/3 26/8/3 32/9/3
f 10/10/4 31/11/4 30/12/4
f 13/13/5 37/14/5 40/15/5
f 16/16/6 39/17/6 38/18/6
f 19/19/7 33/20/7 36/21/7
f 22/22/8 35/23/8 34/24/8
f 7/7/9 1/1/9 25/3/9 26/8/9
f 27/25/10 28/4/10 29/6/10 25/26/10
f 5/5/11 10/10/11 30/12/11 29/6/11
f 31/11/12 32/27/12 26/28/12 30/12/12
f 19/19/13 7/7/13 32/9/13 33/20/13
f 10/10/14 22/22/14 34/24/14 31/11/14
f 35/23/15 36/21/15 33/20/15 34/24/15
f 13/13/16 19/19/16 36/21/16 37/14/16
f 22/22/17 16/16/17 38/18/17 35/23/17
f 39/17/18 40/15/18 37/14/18 38/18/18
f 1/1/19 13/13/19 40/15/19 27/2/19
f 16/16/20 5/29/20 28/30/20 39/17/20
f 7/7/21 19/19/21 13/13/21 1/1/21
f 3/31/22 6/32/22 12/33/22 8/34/22
f 15/35/23 17/36/23 4/37/23 2/38/23
f 22/22/24 10/39/24 5/40/24 16/16/24
f 9/41/25 11/42/25 24/43/25 20/44/25
f 21/45/26 23/46/26 18/47/26 14/48/26
f 41/49/22 42/50/22 26/28/22 25/26/22
f 43/51/23 44/52/23 28/30/23 27/53/23
f 45/54/22 41/49/22 25/26/22 29/6/22
f 46/55/22 45/54/22 29/6/22 30/12/22
f 47/56/25 48/57/25 32/27/25 31/11/25
f 42/50/22 46/55/22 30/12/22 26/28/22
f 48/57/25 49/58/25 33/20/25 32/27/25
f 50/59/25 47/56/25 31/11/25 34/24/25
f 51/60/26 52/61/26 36/21/26 35/23/26
f 49/58/25 50/59/25 34/24/25 33/20/25
f 52/61/26 53/62/26 37/14/26 36/21/26
f 54/63/26 51/60/26 35/23/26 38/18/26
f 55/64/23 56/65/23 40/15/23 39/17/23
f 53/62/26 54/63/26 38/18/26 37/14/26
f 56/65/23 43/51/23 27/53/23 40/15/23
f 44/52/23 55/64/23 39/17/23 28/30/23
f 3/31/27 8/34/27 42/50/27 41/49/27
f 2/38/28 4/37/28 44/52/28 43/51/28
f 6/32/29 3/31/29 41/49/29 45/54/29
f 12/33/30 6/32/30 45/54/30 46/55/30
f 11/42/31 9/41/31 48/57/31 47/56/31
f 8/34/32 12/33/32 46/55/32 42/50/32
f 9/41/33 20/44/33 49/58/33 48/57/33
f 24/43/34 11/42/34 47/56/34 50/59/34
f 23/46/35 21/45/35 52/61/35 51/60/35
f 20/44/36 24/43/36 50/59/36 49/58/36
f 21/45/37 14/48/37 53/62/37 52/61/37
f 18/47/38 23/46/38 51/60/38 54/63/38
f 17/36/39 15/35/39 56/65/39 55/64/39
f 14/48/40 18/47/40 54/63/40 53/62/40
f 15/35/41 2/38/41 43/51/41 56/65/41
f 4/37/42 17/36/42 55/64/42 44/52/42
